<svg width="3879" height="608" viewBox="0 0 3879 608" fill="none" xmlns="http://www.w3.org/2000/svg">
<path d="M620.361 410V218.864H713.097C724.267 218.864 733.942 220.83 742.122 224.763C750.302 228.696 756.673 234.359 761.235 241.753C765.955 248.989 768.315 257.642 768.315 267.71C768.315 278.25 765.09 287.059 758.64 294.138C752.19 301.06 744.639 305.544 735.987 307.589V308.533C742.436 309.477 748.886 311.836 755.336 315.612C761.786 319.387 767.135 324.657 771.382 331.422C775.63 338.029 777.753 346.288 777.753 356.199C777.753 367.053 775.158 376.492 769.966 384.515C764.932 392.538 757.853 398.831 748.729 403.393C739.605 407.798 729.143 410 717.345 410H620.361ZM647.498 386.875H711.682C723.952 386.875 733.548 384.043 740.47 378.38C747.392 372.717 750.853 364.615 750.853 354.075C750.853 343.378 747.392 335.355 740.47 330.006C733.548 324.657 724.031 321.983 711.918 321.983H647.498V386.875ZM647.498 299.802H709.794C719.705 299.802 727.413 297.285 732.919 292.251C738.582 287.217 741.414 280.138 741.414 271.013C741.414 261.575 738.582 254.417 732.919 249.54C727.413 244.506 719.705 241.989 709.794 241.989H647.498V299.802ZM785.902 410L867.784 218.864H897.752L979.398 410H952.261L927.72 352.895H836.871L812.566 410H785.902ZM845.602 329.77H919.461L883.358 244.349H882.178L845.602 329.77ZM1004.18 410V218.864H1095.97C1115.32 218.864 1130.58 223.426 1141.75 232.55C1152.92 241.674 1158.51 254.574 1158.51 271.249C1158.51 279.902 1156.54 287.689 1152.61 294.61C1148.83 301.375 1142.93 306.96 1134.91 311.364V312.308C1142.46 312.308 1148.28 314.353 1152.37 318.443C1156.46 322.376 1158.51 328.04 1158.51 335.433V410H1131.61V331.658H1031.32V410H1004.18ZM1031.32 309.241H1093.38C1105.49 309.241 1114.93 306.33 1121.7 300.51C1128.46 294.532 1131.84 286.194 1131.84 275.497C1131.84 264.642 1128.46 256.305 1121.7 250.484C1114.93 244.663 1105.49 241.753 1093.38 241.753H1031.32V309.241ZM1201.35 410V218.864H1293.14C1312.49 218.864 1327.75 223.426 1338.92 232.55C1350.09 241.674 1355.67 254.574 1355.67 271.249C1355.67 279.902 1353.7 287.689 1349.77 294.61C1346 301.375 1340.1 306.96 1332.07 311.364V312.308C1339.63 312.308 1345.45 314.353 1349.54 318.443C1353.63 322.376 1355.67 328.04 1355.67 335.433V410H1328.77V331.658H1228.48V410H1201.35ZM1228.48 309.241H1290.54C1302.66 309.241 1312.1 306.33 1318.86 300.51C1325.62 294.532 1329.01 286.194 1329.01 275.497C1329.01 264.642 1325.62 256.305 1318.86 250.484C1312.1 244.663 1302.66 241.753 1290.54 241.753H1228.48V309.241ZM1399.45 410V218.864H1426.36V410H1399.45ZM1607.33 410H1474V218.864H1607.33V241.989H1501.14V299.566H1601.66V322.219H1501.14V386.875H1607.33V410ZM1642.41 410V218.864H1734.2C1753.55 218.864 1768.81 223.426 1779.98 232.55C1791.15 241.674 1796.73 254.574 1796.73 271.249C1796.73 279.902 1794.77 287.689 1790.83 294.61C1787.06 301.375 1781.16 306.96 1773.14 311.364V312.308C1780.69 312.308 1786.51 314.353 1790.6 318.443C1794.69 322.376 1796.73 328.04 1796.73 335.433V410H1769.83V331.658H1669.54V410H1642.41ZM1669.54 309.241H1731.61C1743.72 309.241 1753.16 306.33 1759.92 300.51C1766.69 294.532 1770.07 286.194 1770.07 275.497C1770.07 264.642 1766.69 256.305 1759.92 250.484C1753.16 244.663 1743.72 241.753 1731.61 241.753H1669.54V309.241ZM1910.48 410V218.864H1937.38V410H1910.48ZM2158.23 410H2127.79L2011.46 254.495H2010.51V410H1985.03V218.864H2015.47L2131.8 375.076H2132.74V218.864H2158.23V410ZM2282.26 410H2255.36V241.989H2187.17V218.864H2350.46V241.989H2282.26V410ZM2512.68 410H2379.36V218.864H2512.68V241.989H2406.49V299.566H2507.02V322.219H2406.49V386.875H2512.68V410ZM2547.76 410V218.864H2574.9V386.875H2678.96V410H2547.76ZM2707.32 410V218.864H2734.45V386.875H2838.52V410H2707.32ZM2867.82 410V218.864H2894.72V410H2867.82ZM3024.25 412.832C3006 412.832 2989.87 408.741 2975.87 400.561C2961.87 392.381 2951.02 380.897 2943.31 366.109C2935.6 351.322 2931.75 334.096 2931.75 314.432C2931.75 294.768 2935.76 277.542 2943.78 262.754C2951.96 247.967 2963.29 236.483 2977.76 228.303C2992.39 220.122 3009.3 216.032 3028.5 216.032C3043.44 216.032 3056.65 218.471 3068.14 223.347C3079.62 228.067 3088.98 234.989 3096.22 244.113C3103.46 253.237 3108.25 264.406 3110.61 277.621H3082.53C3080.17 265.35 3074.35 255.99 3065.07 249.54C3055.79 242.933 3043.6 239.629 3028.5 239.629C3014.49 239.629 3002.22 242.697 2991.68 248.832C2981.3 254.967 2973.28 263.62 2967.62 274.789C2961.95 285.958 2959.12 299.251 2959.12 314.668C2959.12 329.77 2961.95 343.063 2967.62 354.547C2973.44 365.874 2981.46 374.762 2991.68 381.212C3002.07 387.504 3013.87 390.65 3027.08 390.65C3037.93 390.65 3047.61 388.763 3056.1 384.987C3064.76 381.054 3071.6 375.863 3076.63 369.413C3081.67 362.963 3084.18 355.648 3084.18 347.468V335.433H3024.25V313.488H3086.31C3094.02 313.488 3099.99 315.454 3104.24 319.387C3108.49 323.32 3110.61 328.983 3110.61 336.377V410H3084.89V382.155H3083.71C3079.62 391.437 3072.15 398.909 3061.3 404.573C3050.6 410.079 3038.25 412.832 3024.25 412.832ZM3282.53 410H3149.21V218.864H3282.53V241.989H3176.35V299.566H3276.87V322.219H3176.35V386.875H3282.53V410ZM3490.82 410H3460.38L3344.04 254.495H3343.1V410H3317.61V218.864H3348.05L3464.39 375.076H3465.33V218.864H3490.82V410ZM3622.17 413.068C3602.82 413.068 3585.91 409.056 3571.43 401.033C3557.12 392.853 3546.03 381.369 3538.16 366.581C3530.3 351.794 3526.36 334.411 3526.36 314.432C3526.36 294.453 3530.3 277.149 3538.16 262.518C3546.03 247.731 3557.12 236.326 3571.43 228.303C3585.91 220.122 3602.82 216.032 3622.17 216.032C3636.96 216.032 3650.01 218.471 3661.34 223.347C3672.82 228.067 3682.26 235.067 3689.66 244.349C3697.05 253.473 3702.08 264.564 3704.76 277.621H3677.38C3674.55 265.507 3668.34 256.147 3658.74 249.54C3649.3 242.933 3637.11 239.629 3622.17 239.629C3600.62 239.629 3583.7 246.315 3571.43 259.687C3559.16 273.058 3553.03 291.307 3553.03 314.432C3553.03 337.714 3559.16 356.041 3571.43 369.413C3583.7 382.627 3600.62 389.235 3622.17 389.235C3637.11 389.235 3649.3 386.01 3658.74 379.56C3668.34 372.953 3674.55 363.592 3677.38 351.479H3704.76C3702.08 364.379 3697.05 375.47 3689.66 384.751C3682.26 393.875 3672.82 400.876 3661.34 405.753C3650.01 410.629 3636.96 413.068 3622.17 413.068ZM3867.11 410H3733.79V218.864H3867.11V241.989H3760.93V299.566H3861.45V322.219H3760.93V386.875H3867.11V410Z" fill="black"/>
<path fill-rule="evenodd" clip-rule="evenodd" d="M444.255 0H114.349C115.107 5.74903 119.846 11.4981 122.562 16.489C125.721 22.3012 128.817 26.7235 131.66 32.0935C136.966 42.4544 143.094 52.6889 149.223 62.7339L184.791 124.773H341.72C360.168 124.773 375.014 126.036 392.388 126.036C391.187 131.09 320.746 250.999 315.818 259.528L291.053 303.94L329.401 371.855C343.616 396.557 381.774 465.545 393.588 483.108H184.728L157.751 530.301C154.593 535.418 152.445 539.966 149.286 545.273C146.001 550.706 143.094 555.697 140.252 560.941C137.282 566.437 134.376 570.733 131.154 576.609C128.059 582.294 115.613 602.258 114.286 607.944H445.456C446.972 602.195 472.179 562.457 476.791 553.992L528.469 467.251C528.595 467.124 528.911 466.935 528.974 466.556C529.038 466.177 529.29 466.05 529.48 465.861C526.384 461.249 523.731 456.005 520.761 451.078L461.313 348.669C459.038 344.942 436.105 306.467 436.105 303.94L528.722 144.294C528.974 141.894 491.953 80.8655 486.646 71.2627L444.255 0Z" fill="#E3B252"/>
<path fill-rule="evenodd" clip-rule="evenodd" d="M144.61 124.395H0L103.167 304.004L0.694938 483.993H146.505L247.777 304.004L144.61 124.395Z" fill="#E3B252"/>
</svg>
