<svg width="530" height="608" viewBox="0 0 530 608" fill="none" xmlns="http://www.w3.org/2000/svg">
<path fill-rule="evenodd" clip-rule="evenodd" d="M444.255 0H114.349C115.107 5.74903 119.846 11.4981 122.562 16.489C125.721 22.3012 128.817 26.7235 131.66 32.0935C136.966 42.4544 143.094 52.6889 149.223 62.7339L184.791 124.773H341.72C360.168 124.773 375.014 126.036 392.388 126.036C391.187 131.09 320.746 250.999 315.818 259.528L291.053 303.94L329.401 371.855C343.616 396.557 381.774 465.545 393.588 483.108H184.728L157.751 530.301C154.593 535.418 152.445 539.966 149.286 545.273C146.001 550.706 143.094 555.697 140.252 560.941C137.282 566.437 134.376 570.733 131.154 576.609C128.059 582.294 115.613 602.258 114.286 607.944H445.456C446.972 602.195 472.179 562.457 476.791 553.992L528.469 467.251C528.595 467.124 528.911 466.935 528.974 466.556C529.038 466.177 529.29 466.05 529.48 465.861C526.384 461.249 523.731 456.005 520.761 451.078L461.313 348.669C459.038 344.942 436.105 306.467 436.105 303.94L528.722 144.294C528.974 141.894 491.953 80.8655 486.646 71.2627L444.255 0Z" fill="#E3B252"/>
<path fill-rule="evenodd" clip-rule="evenodd" d="M144.61 124.395H0L103.167 304.004L0.694938 483.993H146.505L247.777 304.004L144.61 124.395Z" fill="#E3B252"/>
</svg>
